<svg width="158" height="145" viewBox="0 0 158 145" fill="none" xmlns="http://www.w3.org/2000/svg">
<path d="M42.9 55.3C41.36 55.2067 40.17 54.9733 39.33 54.6C38.49 54.18 37.8133 53.6667 37.3 53.06C35.9933 51.5667 35.5267 49.7233 35.9 47.53C36.0867 46.4567 36.4833 45.4067 37.09 44.38C37.65 43.3067 38.3733 42.3033 39.26 41.37C39.7733 40.8567 40.3333 40.39 40.94 39.97C41.5933 39.5033 42.2467 39.0833 42.9 38.71C43.7867 38.2433 44.6967 37.8233 45.63 37.45C46.5633 37.0767 47.45 36.7967 48.29 36.61C49.1767 36.3767 50.0633 36.19 50.95 36.05C51.1367 36.0033 51.3 35.98 51.44 35.98C51.6267 35.9333 51.8367 35.91 52.07 35.91C53.1433 35.7233 54.2167 35.5833 55.29 35.49C56.41 35.3967 57.6 35.35 58.86 35.35C60.1667 35.3033 61.4967 35.35 62.85 35.49C64.25 35.5833 65.6733 35.8867 67.12 36.4C68.8 36.96 70.3633 37.8 71.81 38.92C73.2567 39.9933 74.5633 41.2533 75.73 42.7C76.8967 44.1 77.9233 45.64 78.81 47.32C79.6967 48.9533 80.42 50.61 80.98 52.29C81.6333 54.2033 82.1933 56.2567 82.66 58.45C83.1733 60.6433 83.43 62.8367 83.43 65.03C83.4767 67.2233 83.22 69.3467 82.66 71.4C82.1467 73.4533 81.19 75.2733 79.79 76.86C78.4367 78.4467 76.57 79.73 74.19 80.71C71.8567 81.69 68.8933 82.2267 65.3 82.32H45.07C44.1833 82.32 43.2033 82.3433 42.13 82.39C41.0567 82.39 39.9833 82.46 38.91 82.6C37.8833 82.6933 36.88 82.88 35.9 83.16C34.92 83.44 34.0567 83.8367 33.31 84.35L32.89 83.51C34.71 82.1567 36.32 81.2233 37.72 80.71C39.12 80.15 40.38 79.8 41.5 79.66C42.1067 79.24 42.48 78.75 42.62 78.19C42.76 77.63 42.83 76.58 42.83 75.04C42.8767 73.9667 42.9 71.7267 42.9 68.32V55.3ZM50.67 79.8H50.95C51.93 79.8933 52.8867 80.01 53.82 80.15C54.7533 80.29 55.6633 80.4067 56.55 80.5C57.4367 80.5933 58.3 80.6633 59.14 80.71C59.98 80.7567 60.8667 80.78 61.8 80.78C62.78 80.78 63.7833 80.7567 64.81 80.71C65.8367 80.6167 66.77 80.43 67.61 80.15C68.45 79.9167 69.3833 79.5667 70.41 79.1C71.4833 78.6333 72.2767 78.05 72.79 77.35C73.5833 76.23 74.1667 74.8767 74.54 73.29C74.96 71.6567 75.2167 69.93 75.31 68.11C75.4033 66.2433 75.3567 64.3067 75.17 62.3C74.9833 60.2933 74.7033 58.3567 74.33 56.49C73.9567 54.5767 73.49 52.8033 72.93 51.17C72.4167 49.49 71.8567 48.0667 71.25 46.9C70.4567 45.2667 69.3367 43.8433 67.89 42.63C66.49 41.4167 65.1133 40.4367 63.76 39.69C62.4067 38.8967 60.9367 38.3833 59.35 38.15C57.7633 37.9167 56.2467 37.8 54.8 37.8C53.3533 37.8467 52 37.9867 50.74 38.22C50.74 38.8267 50.7167 39.5267 50.67 40.32C50.67 41.0667 50.67 41.9767 50.67 43.05V79.8ZM37.79 48.93C37.7433 49.4433 37.8133 49.8867 38 50.26C38.14 50.6333 38.49 51.03 39.05 51.45C39.4233 51.7767 39.9133 52.08 40.52 52.36C41.1733 52.5933 41.9667 52.7567 42.9 52.85V41.02C42.6667 41.16 42.4567 41.3 42.27 41.44C42.0833 41.58 41.8733 41.6967 41.64 41.79C40.8933 42.35 40.2867 42.91 39.82 43.47C39.4 44.03 39.05 44.6367 38.77 45.29C38.4433 45.9433 38.21 46.5967 38.07 47.25C37.93 47.8567 37.8367 48.4167 37.79 48.93Z" fill="#F5F5F5"/>
<path d="M121.59 78.8C120.377 78.8 119.233 78.5667 118.16 78.1C117.087 77.6333 116.037 77.1433 115.01 76.63C114.077 76.1167 113.12 75.65 112.14 75.23C111.207 74.81 110.227 74.6 109.2 74.6C108.033 74.6 106.983 74.9267 106.05 75.58C105.163 76.1867 104.44 76.8167 103.88 77.47C103.32 78.1233 102.97 78.45 102.83 78.45C102.55 78.45 102.247 78.3567 101.92 78.17C101.64 77.9367 101.5 77.7033 101.5 77.47C101.5 77.0033 101.71 76.3733 102.13 75.58C102.55 74.7867 103.133 73.9933 103.88 73.2C104.673 72.4067 105.583 71.73 106.61 71.17C107.637 70.61 108.757 70.33 109.97 70.33C111.183 70.33 112.28 70.5633 113.26 71.03C114.287 71.4967 115.243 71.9867 116.13 72.5C117.063 73.06 117.973 73.5733 118.86 74.04C119.747 74.46 120.657 74.67 121.59 74.67C122.383 74.67 123.153 74.46 123.9 74.04C124.647 73.5733 125.3 73.06 125.86 72.5C126.467 71.8933 126.957 71.38 127.33 70.96C127.75 70.4933 128.007 70.26 128.1 70.26C128.287 70.26 128.567 70.3767 128.94 70.61C129.313 70.8433 129.5 71.1933 129.5 71.66C129.5 72.36 129.243 73.13 128.73 73.97C128.263 74.81 127.633 75.6033 126.84 76.35C126.047 77.05 125.183 77.6333 124.25 78.1C123.317 78.5667 122.43 78.8 121.59 78.8Z" fill="#F5F5F5"/>
<path d="M87.08 93.62C88.9467 92.3133 90.7667 90.82 92.54 89.14C94.3133 87.3667 96.04 85.2667 97.72 82.84L99.82 83.82C98.0467 86.9 96.2267 89.5133 94.36 91.66C92.5867 93.8067 90.7667 95.6267 88.9 97.12C87.1267 98.52 85.3533 99.6867 83.58 100.62C81.9 101.46 80.2667 102.207 78.68 102.86C75.4133 104.167 72.4733 105.147 69.86 105.8C67.34 106.453 64.7267 106.967 62.02 107.34C56.6067 108.087 51.1933 108.18 45.78 107.62C42.98 107.433 40.2267 107.013 37.52 106.36C34.8133 105.707 32.2 104.82 29.68 103.7C27.0667 102.58 24.5467 101.18 22.12 99.5C19.7867 97.7267 17.5467 95.58 15.4 93.06C13.16 90.4467 11.1067 87.46 9.24 84.1C7.46667 80.74 6.06667 77.1933 5.04 73.46C4.01333 69.6333 3.45333 65.7133 3.36 61.7C3.36 57.6867 3.87333 53.58 4.9 49.38C5.92667 45.18 7.51333 41.0267 9.66 36.92C11.9 32.8133 14.56 29.1733 17.64 26C20.0667 23.5733 22.5867 21.52 25.2 19.84C27.9067 18.0667 30.5667 16.5733 33.18 15.36C34.02 14.8933 34.86 14.52 35.7 14.24L38.22 13.4C41.3933 12.28 44.24 11.58 46.76 11.3C49.3733 10.9267 51.8933 10.7867 54.32 10.88C56.7467 11.0667 59.08 11.3933 61.32 11.86C63.56 12.2333 65.6133 12.84 67.48 13.68C68.1333 13.8667 68.74 14.1467 69.3 14.52C69.9533 14.8 70.56 15.08 71.12 15.36C72.24 16.0133 73.2667 16.6667 74.2 17.32L77 19.14C77.9333 19.7933 78.7267 20.3533 79.38 20.82C80.1267 21.2867 80.7333 21.66 81.2 21.94C83.72 22.1267 86.66 21.4267 90.02 19.84L91.14 21.24C87.3133 24.2267 84.0467 26.98 81.34 29.5C78.7267 31.9267 76.4867 34.2133 74.62 36.36C72.7533 38.4133 71.1667 40.3733 69.86 42.24C68.6467 44.0133 67.5733 45.74 66.64 47.42C64.96 50.3133 63.6533 53.02 62.72 55.54C61.7867 58.06 61.8333 60.3467 62.86 62.4C63.14 61.7467 63.6067 61.28 64.26 61C64.9133 60.72 65.5667 60.72 66.22 61C66.8733 61.1867 67.4333 61.5133 67.9 61.98C68.3667 62.54 68.6933 63.1933 68.88 63.94C69.0667 64.5933 69.1133 65.2467 69.02 65.9C68.9267 66.5533 68.6933 67.1133 68.32 67.58C68.04 67.9533 67.76 68.28 67.48 68.56C66.92 69.12 66.08 69.54 64.96 69.82C64.4933 69.9133 63.8867 69.96 63.14 69.96C62.4867 69.96 61.7867 69.82 61.04 69.54C60.2933 69.1667 59.5933 68.7 58.94 68.14C58.38 67.4867 57.9133 66.74 57.54 65.9C57.0733 64.9667 56.7467 63.94 56.56 62.82C56.4667 61.7 56.4667 60.6267 56.56 59.6C56.6533 57.5467 57.4 55.1667 58.8 52.46C59.5467 50.9667 60.4333 49.3333 61.46 47.56C62.58 45.6933 64.0267 43.6867 65.8 41.54C67.6667 39.3 70 36.6867 72.8 33.7C73.4533 32.6733 73.8267 31.74 73.92 30.9C74.1067 29.9667 74.1067 29.1267 73.92 28.38C73.8267 27.54 73.5933 26.7933 73.22 26.14C72.94 25.4867 72.6133 24.88 72.24 24.32C71.4 23.0133 70.5133 21.94 69.58 21.1C68.74 20.1667 67.6667 19.3267 66.36 18.58C65.24 17.9267 63.98 17.3667 62.58 16.9C61.18 16.34 59.7333 15.8267 58.24 15.36C57.7733 15.1733 57.3533 15.08 56.98 15.08C56.6067 14.9867 56.1867 14.8933 55.72 14.8C53.8533 14.4267 52.0333 14.2867 50.26 14.38C48.58 14.38 46.8533 14.5667 45.08 14.94C44.8 15.0333 44.4733 15.1267 44.1 15.22C43.82 15.22 43.54 15.2667 43.26 15.36C41.86 15.7333 40.5067 16.2 39.2 16.76C37.9867 17.2267 36.82 17.7867 35.7 18.44C32.9 20.12 30.5667 22.1733 28.7 24.6C27.6733 25.9067 26.74 27.3533 25.9 28.94C25.1533 30.5267 24.4067 32.16 23.66 33.84C23.0067 35.6133 22.4467 37.4333 21.98 39.3C21.5133 41.0733 21.14 43.08 20.86 45.32C20.4867 47.56 20.2067 49.94 20.02 52.46C19.9267 54.98 19.9733 57.5467 20.16 60.16C20.3467 62.7733 20.72 65.34 21.28 67.86C21.84 70.38 22.6333 72.9 23.66 75.42C24.6867 77.94 25.9467 80.4133 27.44 82.84C29.0267 85.1733 30.7067 87.32 32.48 89.28C35.7467 92.92 39.5733 95.72 43.96 97.68C46.2 98.6133 48.58 99.36 51.1 99.92C53.7133 100.48 56.3733 100.807 59.08 100.9C61.88 100.993 64.6333 100.9 67.34 100.62C70.14 100.247 72.7067 99.7333 75.04 99.08C77.4667 98.4267 79.6133 97.68 81.48 96.84C83.3467 96 85.2133 94.9267 87.08 93.62Z" fill="#F5F5F5"/>
</svg>
