<svg width="28" height="42" viewBox="0 0 28 42" fill="none" xmlns="http://www.w3.org/2000/svg">
  <path
    d="M24.715 6.55C25.015 6.08333 25.215 5.66667 25.315 5.3C25.415 4.8 25.3317 4.45 25.065 4.25C24.565 3.91667 23.715 3.68333 22.515 3.55C20.6817 3.31666 18.6984 3.43333 16.565 3.9C12.3317 4.86667 8.96502 6.63333 6.46502 9.2C5.73169 9.93333 5.13169 10.6667 4.66502 11.4C3.99835 12.3667 3.63169 13.25 3.56502 14.05C3.49835 15.3833 4.39835 16.7833 6.26502 18.25C7.09835 18.9167 8.13169 19.6167 9.36502 20.35C10.6317 21.05 11.865 21.7667 13.065 22.5C14.2984 23.2 15.3484 23.9 16.215 24.6C16.8484 25.1 17.3984 25.6333 17.865 26.2C18.2984 26.1 18.7484 26 19.215 25.9C21.615 25.5333 23.6317 25.4167 25.265 25.55C25.8984 25.6167 26.1984 25.7333 26.165 25.9C26.165 26 25.965 26.0667 25.565 26.1C25.3317 26.1333 24.8817 26.15 24.215 26.15C23.5484 26.1167 23.0984 26.1 22.865 26.1C21.365 26.1667 19.8484 26.3833 18.315 26.75C18.4817 27.0167 18.6317 27.2833 18.765 27.55C19.0317 27.4833 19.2817 27.4333 19.515 27.4C20.0817 27.2667 20.4984 27.2 20.765 27.2C21.0984 27.2 21.2817 27.25 21.315 27.35C21.3484 27.4167 21.315 27.4833 21.215 27.55C21.1484 27.5833 21.0317 27.6333 20.865 27.7C20.7317 27.7333 20.5817 27.7667 20.415 27.8C20.2817 27.8 20.1484 27.8167 20.015 27.85C19.8817 27.8833 19.7984 27.9 19.765 27.9C19.5317 27.9333 19.2817 27.9833 19.015 28.05C19.1817 28.4167 19.2984 28.7667 19.365 29.1C19.665 30.4333 19.4984 31.85 18.865 33.35C18.1984 35.0167 17.115 36.55 15.615 37.95C14.0817 39.4167 12.4984 40.3833 10.865 40.85C8.53169 41.5167 6.73169 41.25 5.46502 40.05C4.76502 39.4167 4.39835 38.6 4.36502 37.6C4.33169 36.6 4.53169 35.7167 4.96502 34.95C5.69835 33.4833 6.89835 32.1 8.56502 30.8C10.0317 29.6333 11.6984 28.5833 13.565 27.65C13.965 27.45 14.3817 27.2667 14.815 27.1C13.7484 26.1333 12.015 24.9667 9.61502 23.6C7.24835 22.2 5.93169 21.4167 5.66502 21.25C3.73169 19.9833 2.43169 18.8333 1.76502 17.8C0.765017 16.3 0.481684 14.6333 0.915017 12.8C1.18169 11.6333 1.79835 10.4 2.76502 9.1C3.76502 7.73333 4.99835 6.5 6.46502 5.4C9.09835 3.43333 12.4317 2.1 16.465 1.4C18.3984 1.1 20.2484 0.999999 22.015 1.1C24.215 1.26666 25.7984 1.83333 26.765 2.8C27.265 3.4 27.515 4.05 27.515 4.75C27.515 5.45 27.315 6.15 26.915 6.85C26.7817 7.15 26.5984 7.45 26.365 7.75C26.1317 8.01667 25.8984 8.25 25.665 8.45C25.465 8.65 25.1984 8.88333 24.865 9.15C24.5317 9.41667 24.265 9.63333 24.065 9.8C23.865 9.93333 23.5817 10.1167 23.215 10.35C23.0484 10.4833 22.865 10.6167 22.665 10.75C22.1984 11.0833 21.765 11.3667 21.365 11.6C20.965 11.8333 20.6317 12 20.365 12.1C19.965 12.2 19.715 12.1833 19.615 12.05C19.515 11.8833 19.5817 11.6167 19.815 11.25C19.9484 11.0167 20.165 10.7667 20.465 10.5C20.7317 10.2 21.3817 9.61667 22.415 8.75C23.4817 7.88333 24.2484 7.15 24.715 6.55ZM18.315 30.2C18.2817 29.6 18.115 29 17.815 28.4C17.715 28.4333 17.565 28.4833 17.365 28.55C17.765 29.45 17.865 30.3833 17.665 31.35C17.465 32.2833 16.9984 33.3167 16.265 34.45C15.4317 35.8167 14.315 36.9667 12.915 37.9C11.215 39.1 9.61502 39.5833 8.11502 39.35C7.14835 39.2167 6.53169 38.8333 6.26502 38.2C5.96502 37.5667 6.04835 36.75 6.51502 35.75C7.14835 34.45 8.26502 33.1333 9.86502 31.8C11.065 30.8 12.5817 29.8833 14.415 29.05C14.9484 28.85 15.4817 28.6333 16.015 28.4C15.8484 28.1667 15.6484 27.9167 15.415 27.65C14.1484 28.15 12.915 28.75 11.715 29.45C9.94835 30.45 8.49835 31.6333 7.36502 33C6.69835 33.8 6.18169 34.5833 5.81502 35.35C5.31502 36.45 5.16502 37.4 5.36502 38.2C5.63169 39.1 6.19835 39.6667 7.06502 39.9C7.96502 40.1667 8.89835 40.2 9.86502 40C11.665 39.6 13.315 38.7333 14.815 37.4C16.115 36.2333 17.1317 34.7 17.865 32.8C18.2317 31.8667 18.3817 31 18.315 30.2ZM16.415 29.1C16.3817 29.0333 16.3484 28.9667 16.315 28.9C15.7484 29.1333 15.215 29.3667 14.715 29.6C12.9817 30.4333 11.4984 31.3667 10.265 32.4C8.59835 33.8 7.54835 35.15 7.11502 36.45C6.81502 37.45 6.98169 38.0667 7.61502 38.3C8.21502 38.5333 9.01502 38.5 10.015 38.2C11.5484 37.7667 12.9317 36.9167 14.165 35.65C15.265 34.4833 16.0484 33.1333 16.515 31.6C16.7817 30.7 16.7484 29.8667 16.415 29.1ZM17.365 27.65C17.265 27.4833 17.1484 27.3167 17.015 27.15C16.8484 27.1833 16.6984 27.2333 16.565 27.3C16.665 27.4333 16.765 27.5667 16.865 27.7C16.9317 27.8 17.015 27.9167 17.115 28.05C17.315 27.9833 17.465 27.9333 17.565 27.9C17.4984 27.8 17.4317 27.7167 17.365 27.65ZM7.76502 21.05C5.69835 19.85 4.19835 18.6667 3.26502 17.5C2.49835 16.5333 2.09835 15.5 2.06502 14.4C2.06502 13.5667 2.26502 12.6667 2.66502 11.7C1.96502 13.1333 1.81502 14.5 2.21502 15.8C2.51502 16.7667 3.16502 17.7333 4.16502 18.7C5.09835 19.6 6.41502 20.55 8.11502 21.55C10.8817 23.1167 12.465 24.0333 12.865 24.3C14.2317 25.1667 15.2817 25.95 16.015 26.65C16.1484 26.6167 16.2984 26.5833 16.465 26.55C15.6984 25.7833 14.5317 24.9333 12.965 24C12.365 23.6667 11.4817 23.1833 10.315 22.55C9.14835 21.8833 8.29835 21.3833 7.76502 21.05Z"
    stroke="white" stroke-width="0.5px" stroke-dasharray="1000" stroke-dashoffset="1000">
    <animate attributeName="stroke-dashoffset" from="1000" to="0" dur="5s" begin="none" fill="freeze" id="skills" />
  </path>
</svg>