<svg width="50" height="51" viewBox="0 0 50 51" fill="none" xmlns="http://www.w3.org/2000/svg">
<path d="M22.3618 19.5418C21.8618 18.2085 20.0618 15.6418 16.8618 16.0418C12.8618 16.5418 10.3618 17.0418 7.36176 22.0418C4.36176 27.0418 7.15078 31.8305 7.86182 32.5418C8.36172 33.0418 8.95683 34.1055 10.3617 34.5418C14.6287 35.867 19.4718 35.4318 24.3618 30.5418" stroke="#FF4B33"/>
<path d="M34.3618 35.0418L34.0083 35.3954L34.2631 35.6502L34.5854 35.489L34.3618 35.0418ZM36.8618 32.5418L37.2618 32.8418C37.2923 32.8012 37.3164 32.7561 37.3333 32.7082L36.8618 32.5418ZM35.3618 34.5418L35.5854 34.989L35.691 34.9362L35.7618 34.8418L35.3618 34.5418ZM29.8618 25.5418L29.3925 25.7147L29.3976 25.7275L29.8618 25.5418ZM31.8618 30.5418L31.3976 30.7275L31.4053 30.7468L31.4146 30.7654L31.8618 30.5418ZM33.8618 34.5418L33.4146 34.7654L33.4509 34.838L33.5083 34.8954L33.8618 34.5418ZM39.8618 24.0418L39.4061 23.8361L39.3974 23.8554L39.3903 23.8754L39.8618 24.0418ZM34.5854 35.489L35.5854 34.989L35.1382 34.0946L34.1382 34.5946L34.5854 35.489ZM35.7618 34.8418L37.2618 32.8418L36.4618 32.2418L34.9618 34.2418L35.7618 34.8418ZM25.8926 16.2147L29.3926 25.7147L30.331 25.369L26.831 15.869L25.8926 16.2147ZM29.3976 25.7275L31.3976 30.7275L32.3261 30.3561L30.3261 25.3561L29.3976 25.7275ZM31.4146 30.7654L33.4146 34.7654L34.309 34.3182L32.309 30.3182L31.4146 30.7654ZM33.5083 34.8954L34.0083 35.3954L34.7154 34.6883L34.2154 34.1883L33.5083 34.8954ZM37.3333 32.7082L40.3333 24.2082L39.3903 23.8754L36.3903 32.3754L37.3333 32.7082ZM40.3175 24.2475L43.9286 16.2475L43.0172 15.8361L39.4061 23.8361L40.3175 24.2475Z" fill="#FF4B33"/>
</svg>
