<svg width="50" height="50" viewBox="0 0 50 50" fill="none" xmlns="http://www.w3.org/2000/svg">
<path d="M25 2.60417C19.6802 2.60143 14.5331 4.49248 10.4804 7.93868C6.42773 11.3849 3.73412 16.1612 2.8819 21.4123C2.02969 26.6634 3.07454 32.0464 5.82935 36.5974C8.58416 41.1484 12.869 44.5702 17.9167 46.25C19.0417 46.4583 19.4479 45.7708 19.4479 45.2083V41.4063C13.1979 42.7604 11.9063 38.4063 11.9063 38.4063C11.4929 37.0286 10.5934 35.8478 9.37501 35.0833C7.34376 33.6979 9.53126 33.7188 9.53126 33.7188C10.2408 33.8181 10.9183 34.078 11.5122 34.4787C12.1061 34.8795 12.6007 35.4105 12.9583 36.0313C14.9583 39.4583 18.1667 38.4688 19.4792 37.8958C19.5828 36.7579 20.0888 35.6942 20.9063 34.8958C15.9271 34.3333 10.6979 32.4167 10.6979 23.8333C10.6649 21.6066 11.4934 19.4533 13.0104 17.8229C12.3212 15.8922 12.3995 13.7705 13.2292 11.8958C13.2292 11.8958 15.1042 11.2917 19.3854 14.1875C23.0546 13.1875 26.9246 13.1875 30.5938 14.1875C34.875 11.2917 36.75 11.8958 36.75 11.8958C37.5734 13.772 37.6516 15.8912 36.9688 17.8229C38.4829 19.4543 39.3077 21.6079 39.2708 23.8333C39.2708 32.4375 34.0625 34.3229 29.0521 34.8854C29.5897 35.4301 30.0038 36.0842 30.2662 36.8032C30.5286 37.5221 30.6332 38.2891 30.5729 39.0521V45.1979C30.5729 45.9375 30.9792 46.4896 32.1146 46.2396C37.1571 44.5533 41.4351 41.1279 44.1835 36.5763C46.9318 32.0247 47.9711 26.6437 47.1155 21.396C46.2599 16.1483 43.5651 11.3762 39.5133 7.93333C35.4615 4.49046 30.317 2.60143 25 2.60417" stroke="#38C7C7" stroke-linecap="round" stroke-linejoin="round"/>
</svg>
