<svg width="190" height="87" viewBox="0 0 190 87" fill="none" xmlns="http://www.w3.org/2000/svg">
<path d="M17.5799 61.39L12.1849 61.585C9.15159 61.585 7.17992 61.1733 6.26992 60.35C5.70659 59.9167 5.42492 59.31 5.42492 58.53C5.42492 53.6333 5.59826 47.22 5.94492 39.29C6.29159 31.3167 6.46492 25.12 6.46492 20.7C6.46492 18.9233 8.11159 17.4933 11.4049 16.41C14.6983 15.3267 18.2299 14.785 21.9999 14.785C29.0633 14.785 34.9133 16.7783 39.5499 20.765C44.2299 24.7517 46.5699 29.93 46.5699 36.3C46.5699 39.5067 46.0066 42.475 44.8799 45.205C43.7966 47.935 42.3233 50.2967 40.4599 52.29C38.5966 54.24 36.4299 55.9083 33.9599 57.295C29.0199 60.025 23.5599 61.39 17.5799 61.39ZM41.9549 37.86C41.9549 32.27 40.0483 27.59 36.2349 23.82C32.4649 20.0067 27.5683 18.1 21.5449 18.1C18.5983 18.1 15.0883 19.075 11.0149 21.025C11.0149 24.535 10.8416 29.8 10.4949 36.82C10.1483 43.7967 9.97492 48.6283 9.97492 51.315C9.97492 53.9583 9.99659 55.8433 10.0399 56.97C12.4666 57.4467 15.0666 57.685 17.8399 57.685C24.8599 57.685 30.6233 55.9733 35.1299 52.55C39.6799 49.1267 41.9549 44.23 41.9549 37.86ZM91.5393 24.275C90.8893 24.8817 90.3259 25.315 89.8493 25.575C89.3726 25.835 88.8959 25.8567 88.4193 25.64C87.9859 25.4233 87.6826 25.25 87.5093 25.12C87.3359 24.99 86.9893 24.5783 86.4693 23.885C85.9926 23.1483 85.6893 22.6933 85.5593 22.52C83.3493 19.79 80.4893 18.425 76.9793 18.425C73.5126 18.425 70.2409 19.5517 67.1643 21.805C64.1309 24.015 61.6826 26.94 59.8193 30.58C57.9559 34.22 57.0243 38.0117 57.0243 41.955C57.0243 46.8083 58.6276 50.7733 61.8343 53.85C65.0843 56.9267 69.3743 58.465 74.7043 58.465C80.0776 58.465 84.7793 56.97 88.8093 53.98C89.4593 53.5033 90.1526 52.81 90.8893 51.9C91.6693 50.99 92.3193 50.34 92.8393 49.95C93.4026 49.56 93.9226 49.3867 94.3993 49.43C94.9193 49.4733 95.6343 49.625 96.5443 49.885C94.6809 53.525 91.5609 56.3633 87.1843 58.4C82.8509 60.3933 77.9326 61.39 72.4293 61.39C66.9259 61.39 62.2676 59.8517 58.4543 56.775C54.6409 53.6983 52.7343 49.235 52.7343 43.385C52.7343 39.745 53.3409 36.235 54.5543 32.855C55.7676 29.4317 57.4359 26.42 59.5593 23.82C61.7259 21.1767 64.4126 19.075 67.6193 17.515C70.8693 15.955 74.3793 15.175 78.1493 15.175C84.8659 15.175 89.3293 18.2083 91.5393 24.275ZM183.517 24.275C182.867 24.8817 182.303 25.315 181.827 25.575C181.35 25.835 180.873 25.8567 180.397 25.64C179.963 25.4233 179.66 25.25 179.487 25.12C179.313 24.99 178.967 24.5783 178.447 23.885C177.97 23.1483 177.667 22.6933 177.537 22.52C175.327 19.79 172.467 18.425 168.957 18.425C165.49 18.425 162.218 19.5517 159.142 21.805C156.108 24.015 153.66 26.94 151.797 30.58C149.933 34.22 149.002 38.0117 149.002 41.955C149.002 46.8083 150.605 50.7733 153.812 53.85C157.062 56.9267 161.352 58.465 166.682 58.465C172.055 58.465 176.757 56.97 180.787 53.98C181.437 53.5033 182.13 52.81 182.867 51.9C183.647 50.99 184.297 50.34 184.817 49.95C185.38 49.56 185.9 49.3867 186.377 49.43C186.897 49.4733 187.612 49.625 188.522 49.885C186.658 53.525 183.538 56.3633 179.162 58.4C174.828 60.3933 169.91 61.39 164.407 61.39C158.903 61.39 154.245 59.8517 150.432 56.775C146.618 53.6983 144.712 49.235 144.712 43.385C144.712 39.745 145.318 36.235 146.532 32.855C147.745 29.4317 149.413 26.42 151.537 23.82C153.703 21.1767 156.39 19.075 159.597 17.515C162.847 15.955 166.357 15.175 170.127 15.175C176.843 15.175 181.307 18.2083 183.517 24.275Z" fill="#F5F5F5"/>
<path d="M132.212 54.935C132.342 54.0683 132.862 53.635 133.772 53.635C134.162 53.635 134.596 53.8083 135.072 54.155C135.549 54.4583 135.787 54.935 135.787 55.585C135.787 58.2283 135.029 60.46 133.512 62.28C131.996 64.0567 129.981 64.945 127.467 64.945C125.951 64.945 124.001 64.0567 121.617 62.28C119.234 60.46 117.241 59.55 115.637 59.55C113.211 59.55 110.871 61.37 108.617 65.01C108.271 65.6167 107.751 65.92 107.057 65.92C106.407 65.92 105.931 65.7033 105.627 65.27C105.324 64.7933 105.172 64.4033 105.172 64.1C105.172 63.7533 105.259 63.4283 105.432 63.125C106.949 60.655 108.552 58.7267 110.242 57.34C111.932 55.91 113.947 55.195 116.287 55.195C117.847 55.195 119.884 56.17 122.397 58.12C124.954 60.0267 126.861 60.98 128.117 60.98C129.417 60.98 130.327 60.5467 130.847 59.68C131.411 58.77 131.866 57.1883 132.212 54.935Z" fill="#F5F5F5"/>
</svg>
