<svg width="40px" height="40px" viewBox="0 0 50 50">
            <path id="deploy"
              fill="#fff"
              stroke="none"
              stroke-width="none"
              d="M 45.00,0.00
           C 56.58,0.04 51.56,2.31 60.00,5.37
             72.07,9.73 77.46,10.37 86.55,21.09
             100.53,37.59 100.19,63.75 85.74,79.83
             76.04,90.62 66.84,94.22 53.00,97.00
             53.00,97.00 55.00,99.00 55.00,99.00
             55.00,99.00 55.00,100.00 55.00,100.00
             43.33,99.95 48.09,97.74 39.99,94.28
             39.99,94.28 31.00,91.25 31.00,91.25
             21.53,87.16 12.55,78.26 8.05,69.00
             4.25,61.19 3.90,54.46 4.00,46.00
             4.27,22.91 23.65,5.01 46.00,3.00
             46.00,3.00 45.00,0.00 45.00,0.00 Z
           M 61.00,84.00
           C 74.80,80.24 85.09,68.24 86.82,54.00
             89.14,34.82 73.17,14.04 53.00,15.05
             47.48,15.32 44.66,18.54 40.00,21.00
             40.00,21.00 38.00,17.00 38.00,17.00
             13.25,24.23 6.80,58.76 25.32,75.76
             33.54,83.31 49.79,90.73 57.00,78.00
             57.00,78.00 59.00,78.00 59.00,78.00
             59.00,78.00 61.00,84.00 61.00,84.00 Z"
            />
          </svg>
