<svg width="50" height="50" viewBox="0 0 50 50" fill="none" xmlns="http://www.w3.org/2000/svg">
<path d="M40.3542 17.2396V18.2812C40.3542 28.7708 32.3958 40.7917 17.8333 40.7917C13.5343 40.801 9.32658 39.5517 5.72916 37.1979C6.35392 37.2828 6.98413 37.3211 7.61457 37.3125C11.1781 37.3223 14.6415 36.1336 17.4479 33.9375C15.7924 33.9131 14.1866 33.3675 12.8589 32.3783C11.5312 31.389 10.549 30.0065 10.0521 28.4271C10.5452 28.5316 11.048 28.584 11.5521 28.5833C12.256 28.5835 12.9567 28.4889 13.6354 28.3021C11.8423 27.9446 10.2291 26.9751 9.07186 25.5595C7.91465 24.1439 7.28536 22.3701 7.29166 20.5417V20.4375C8.38874 21.0503 9.61871 21.3864 10.875 21.4167C9.20269 20.3162 8.01372 18.6187 7.551 16.671C7.08828 14.7234 7.38674 12.6725 8.38541 10.9375C10.3753 13.3849 12.8579 15.3861 15.6719 16.8111C18.4859 18.236 21.5683 19.0528 24.7187 19.2083C24.5628 18.6171 24.4892 18.0072 24.5 17.3958C24.4413 15.7801 24.8821 14.1856 25.7622 12.8293C26.6423 11.4731 27.919 10.4211 29.4185 9.81648C30.918 9.2119 32.5674 9.08416 34.1421 9.45064C35.7168 9.81713 37.1403 10.66 38.2187 11.8646C39.9914 11.5068 41.6919 10.8555 43.25 9.9375C42.6591 11.8035 41.4021 13.3868 39.7187 14.3854C41.2912 14.1687 42.8243 13.7267 44.2708 13.0729C43.2225 14.683 41.8963 16.0938 40.3542 17.2396V17.2396Z" stroke="#38C7C7" stroke-linecap="round" stroke-linejoin="round"/>
</svg>
