<svg width="190" height="160" xmlns="http://www.w3.org/2000/svg">
  <path  stroke="black" fill="transparent">
  <animate
  attributeName="d" 
  attributeType="XML"
  dur="1s"
  keyTimes="0; 0.5; 1"
  values="M0 0; M2 2 L4 2 L6 2;M2 2 L4 2 L6 2 L100 100"
  fill="freeze"
  />
  </path>
  <path d="M70 10 C 70 20, 120 20, 120 10" stroke="black" fill="transparent"/>
  <path d="M130 10 C 120 20, 180 20, 170 10" stroke="black" fill="transparent"/>
  <path d="M10 60 C 20 80, 40 80, 50 60" stroke="black" fill="transparent"/>
  <path d="M70 60 C 70 80, 110 80, 110 60" stroke="black" fill="transparent"/>
  <path d="M130 60 C 120 80, 180 80, 170 60" stroke="black" fill="transparent"/>
  <path d="M10 110 C 20 140, 40 140, 50 110" stroke="black" fill="transparent"/>
  <path d="M70 110 C 70 140, 110 140, 110 110" stroke="black" fill="transparent"/>
  <path d="M130 110 C 120 140, 180 140, 170 110" stroke="black" fill="transparent"/>
</svg>