<svg width="50" height="50" viewBox="0 0 50 50" fill="none" xmlns="http://www.w3.org/2000/svg">
<path d="M30.8247 37.0677C31.1677 37.0833 33.7121 38.3698 34.0469 40.258C35.2746 41.2153 36.6907 41.7144 38.1324 41.6979C41.0477 41.6979 42.9103 39.8516 42.9103 37.3021C42.9103 34.2474 40.9963 33.1641 37.789 31.3854L36.0292 30.4297C30.9531 27.6901 27.5793 24.2578 27.5793 17.0026C27.5793 10.3177 31.6007 5.23176 37.8836 5.23176C39.9228 5.04434 41.9603 5.62248 43.7415 6.89391C45.5227 8.16534 46.9684 10.0736 47.898 12.3802L47.615 14.9479L46.5871 16.25L44.5312 17.5521L42.419 16.8359C41.4473 16.25 41.4354 14.7153 40.6275 14.0329C39.8196 13.3505 38.8669 12.9957 37.8959 13.0156C37.4727 12.9617 37.0453 13.02 36.6409 13.187C36.2365 13.3539 35.864 13.6258 35.5471 13.9852C35.2303 14.3447 34.9761 14.7838 34.8006 15.2746C34.6252 15.7654 34.5325 16.2972 34.5283 16.8359C34.5283 19.5104 35.8359 20.5911 38.8458 22.2474L40.6057 23.2005C46.5843 26.4479 49.958 29.7578 49.958 37.2005C49.958 45.224 44.9827 49.6198 38.2989 49.6198C35.6954 49.8295 33.0997 49.0806 30.8247 47.4633C28.5498 45.846 26.5775 44.5521 26.0279 41.4635V39.6875L27.0558 38.3854L28.0838 37.0677H30.8247ZM6.33961 37.0677C7.4457 39.5521 8.45104 41.651 10.8626 41.651C13.1735 41.651 14.6332 40.5052 14.6332 36.0521L10.069 20.1406L11.1628 8.42187L16.2368 1.91145L24.4605 0.609365L21.6686 36.1771C21.6686 45.4036 17.3964 49.6042 11.1628 49.6042C8.96089 49.7551 6.77448 49.0583 4.89121 47.6052C3.00794 46.1522 1.51605 44.0111 0.611817 41.4635L6.33961 37.0677Z" fill="#F5DE19"/>
</svg>
