<svg width="128" height="128" viewBox="0 0 128 128" fill="none" xmlns="http://www.w3.org/2000/svg">
<path d="M68.22 24.69C70.72 24.47 76.2 16.87 91.17 18.08C106.14 19.28 128.98 36.28 122.83 68.16C119.49 85.5 110.47 96.68 93.8 108.8C82.02 117.36 70.03 122.8 64.49 122.88C59.5 122.96 52.62 112.04 52.62 112.04L68.22 24.69V24.69Z" fill="url(#paint0_radial_2_14)"/>
<path d="M68.22 24.69C70.72 24.47 76.2 16.87 91.17 18.08C105.21 19.21 126.16 34.22 123.66 62.36C123.49 64.24 121.57 72.31 117.78 72.71C99.3 74.69 90.46 52.07 85.7 46.11C76.6 34.74 68.22 24.69 68.22 24.69V24.69Z" fill="url(#paint1_radial_2_14)"/>
<path d="M67.53 24.89C70.03 24.67 76.2 16.87 91.17 18.07C102.54 18.98 118.43 29 122.75 47.72C123.76 52.12 117.97 57.16 114.2 57.81C102.68 59.8 88.9 43.07 84.13 37.11C77.66 29.02 72.39 27.25 69.66 26.33C68.56 25.95 67.53 24.89 67.53 24.89V24.89Z" fill="url(#paint2_radial_2_14)"/>
<path d="M88.38 66.94L86.19 89.98L76.66 111.63L68.71 121.36C68.71 121.36 66.44 122.78 64.5 122.87C62.55 122.95 48.05 118.78 35.14 110.04C22.23 101.3 11.98 90.83 7.53 79.06C1.97 64.36 1.77 42.11 15.08 29.8C28.39 17.49 41.5 15.7 52.62 18.08C63.74 20.46 67.12 24.24 69.31 26.03C71.5 27.82 80.83 39.14 80.83 39.14L88.18 58.01L88.38 66.94Z" fill="url(#paint3_radial_2_14)"/>
<path d="M56.83 95.2C32.63 98.2 11.91 83.69 7.46 71.92C4.38 63.79 3.02 60.48 4.6 50.68C5.88 42.78 8.85 35.69 15.07 29.8C27.48 18.05 41.64 15.41 53.22 18.09C64.3 20.65 67.11 24.24 69.29 26.03C71.47 27.82 80.81 39.14 80.81 39.14L88.16 58.01C88.18 58.01 89.68 91.13 56.83 95.2V95.2Z" fill="url(#paint4_radial_2_14)"/>
<path d="M67.91 121.45C68.34 121.57 72.49 119.57 75.1 116.32C82.11 107.57 91.01 95.41 92.59 72.88C94.96 39.08 73.02 26.63 71.69 26.03C70.36 25.44 68.43 25.44 69.91 27.07C71.39 28.7 87.85 47.08 85.62 72.14C83.63 94.56 74.8 111.72 71.68 115.58C68.58 119.43 66.66 121.09 67.91 121.45V121.45Z" fill="url(#paint5_radial_2_14)"/>
<path d="M28.31 50.94C28.31 50.94 25.15 58.57 18.79 53.54C15.33 50.8 15.56 43.73 18.93 37.83C23.05 30.59 30.82 25.61 41.19 24.2C50.45 22.94 56.74 25.57 57.89 31.03C59.29 37.63 53.42 37.36 53.42 37.36C36.95 36.84 30.72 45.46 28.31 50.94V50.94Z" fill="url(#paint6_radial_2_14)"/>
<path d="M23.62 57.97C22.98 50.74 27.52 42.58 35.11 37.96C42.91 33.21 52.62 32.59 60.1 36.3L23.62 57.97Z" fill="url(#paint7_radial_2_14)"/>
<path d="M28.31 50.94C28.31 50.94 25.15 58.57 18.79 53.54C15.33 50.8 15.56 43.73 18.93 37.83C23.05 30.59 30.82 25.61 41.19 24.2C50.45 22.94 56.74 25.57 57.89 31.03C59.29 37.63 53.42 37.36 53.42 37.36C36.95 36.84 30.72 45.46 28.31 50.94V50.94Z" fill="url(#paint8_radial_2_14)"/>
<defs>
<radialGradient id="paint0_radial_2_14" cx="0" cy="0" r="1" gradientUnits="userSpaceOnUse" gradientTransform="translate(79.058 16.909) scale(88.809)">
<stop offset="0.719" stop-color="#FE622B"/>
<stop offset="0.78" stop-color="#FB582C"/>
<stop offset="0.886" stop-color="#F23D2F"/>
<stop offset="1" stop-color="#E71932"/>
</radialGradient>
<radialGradient id="paint1_radial_2_14" cx="0" cy="0" r="1" gradientUnits="userSpaceOnUse" gradientTransform="translate(102.963 33.8216) rotate(143.814) scale(28.3498 61.7286)">
<stop offset="0.371" stop-color="#FF9759"/>
<stop offset="0.747" stop-color="#FF9759" stop-opacity="0"/>
</radialGradient>
<radialGradient id="paint2_radial_2_14" cx="0" cy="0" r="1" gradientUnits="userSpaceOnUse" gradientTransform="translate(53.531 15.482) scale(50.699)">
<stop offset="0.481" stop-color="#FF9759"/>
<stop offset="1" stop-color="#FF9759" stop-opacity="0"/>
</radialGradient>
<radialGradient id="paint3_radial_2_14" cx="0" cy="0" r="1" gradientUnits="userSpaceOnUse" gradientTransform="translate(55.211 29.084) scale(76.871)">
<stop offset="0.701" stop-color="#FE622B"/>
<stop offset="0.766" stop-color="#FD5D2B"/>
<stop offset="0.84" stop-color="#F8502D"/>
<stop offset="0.917" stop-color="#F1392F"/>
<stop offset="0.998" stop-color="#E71A32"/>
<stop offset="0.999" stop-color="#E71932"/>
</radialGradient>
<radialGradient id="paint4_radial_2_14" cx="0" cy="0" r="1" gradientUnits="userSpaceOnUse" gradientTransform="translate(44.6814 18.3661) rotate(88.9858) scale(73.0788 58.2043)">
<stop offset="0.638" stop-color="#FF9759"/>
<stop offset="1" stop-color="#FF9759" stop-opacity="0"/>
</radialGradient>
<radialGradient id="paint5_radial_2_14" cx="0" cy="0" r="1" gradientUnits="userSpaceOnUse" gradientTransform="translate(77.948 17.422) scale(85.745)">
<stop offset="0.499" stop-color="#F34124"/>
<stop offset="0.999" stop-color="#D10D22"/>
</radialGradient>
<radialGradient id="paint6_radial_2_14" cx="0" cy="0" r="1" gradientUnits="userSpaceOnUse" gradientTransform="translate(33.4338 35.6152) rotate(-28.2103) scale(23.3295 11.8573)">
<stop offset="0.345" stop-color="#FEBD92"/>
<stop offset="1" stop-color="#FEBD92" stop-opacity="0"/>
</radialGradient>
<radialGradient id="paint7_radial_2_14" cx="0" cy="0" r="1" gradientUnits="userSpaceOnUse" gradientTransform="translate(43.6102 51.0336) rotate(-30.8811) scale(22.3794 15.2857)">
<stop offset="0.799" stop-color="#FF9759"/>
<stop offset="1" stop-color="#FF9759" stop-opacity="0"/>
</radialGradient>
<radialGradient id="paint8_radial_2_14" cx="0" cy="0" r="1" gradientUnits="userSpaceOnUse" gradientTransform="translate(35.5962 39.5833) rotate(-29.6646) scale(22.276 12.9872)">
<stop offset="0.745" stop-color="#FF9759" stop-opacity="0"/>
<stop offset="0.974" stop-color="#FF9759"/>
</radialGradient>
</defs>
</svg>
