<svg width="50" height="50" viewBox="0 0 50 50" fill="none" xmlns="http://www.w3.org/2000/svg">
<path d="M25 49.9073C24.2236 49.9073 23.499 49.7239 22.8262 49.4029L15.942 45.7808C14.9068 45.2765 15.4244 45.0931 15.735 45.0014C17.1324 44.5888 17.3912 44.4971 18.8404 43.7633C18.9959 43.6716 19.2029 43.7175 19.358 43.8092L24.6377 46.6061C24.8447 46.6977 25.1035 46.6977 25.2588 46.6061L45.9111 36.0149C46.1182 35.9232 46.2217 35.7398 46.2217 35.5106V14.3737C46.2217 14.1445 46.1182 13.9611 45.9111 13.8694L25.2588 3.32387C25.0518 3.23218 24.793 3.23218 24.6377 3.32387L3.98535 13.8695C3.77832 13.9612 3.6748 14.1905 3.6748 14.3739V35.5106C3.6748 35.6939 3.77832 35.9232 3.98535 36.0149L9.62734 38.9033C12.6812 40.2787 14.5961 38.674 14.5961 37.0694V16.2076C14.5961 15.9325 14.8551 15.6574 15.2174 15.6574H17.8572C18.1678 15.6574 18.4783 15.8867 18.4783 16.2076V37.0692C18.4783 40.6913 16.2525 42.8003 12.3705 42.8003C11.1801 42.8003 10.2484 42.8003 7.60879 41.6541L2.17383 38.9033C0.828125 38.2154 0 36.9317 0 35.5562V14.4197C0 13.0443 0.828125 11.7606 2.17383 11.0727L22.8262 0.481485C24.1201 -0.160383 25.8799 -0.160383 27.1738 0.481485L47.8262 11.0727C49.1719 11.7604 50 13.0441 50 14.4197V35.5564C50 36.9318 49.1719 38.2156 47.8262 38.9033L27.1738 49.4948C26.501 49.7699 25.7246 49.9074 25 49.9074V49.9073ZM31.3664 35.3728C22.3084 35.3728 20.4451 31.705 20.4451 28.5872C20.4451 28.3121 20.7039 28.037 21.0662 28.037H23.7576C24.0682 28.037 24.3271 28.2204 24.3271 28.4955C24.7412 30.9254 25.9316 32.1176 31.4182 32.1176C35.766 32.1176 37.6295 31.2465 37.6295 29.1834C37.6295 27.9912 37.1119 27.1201 30.3313 26.5239C24.6895 26.0195 21.1697 24.9192 21.1697 20.9304C21.1697 17.2164 24.6893 15.0157 30.59 15.0157C37.2152 15.0157 40.4762 17.033 40.8902 21.4346C40.8902 21.5721 40.8385 21.7097 40.735 21.8472C40.6314 21.9389 40.4762 22.0306 40.3209 22.0306H37.6295C37.3705 22.0306 37.1119 21.8472 37.06 21.618C36.4389 19.0964 34.8344 18.2711 30.59 18.2711C25.8283 18.2711 25.2588 19.7382 25.2588 20.8386C25.2588 22.1683 25.9316 22.5808 32.3498 23.3144C38.7164 24.0479 41.7184 25.1026 41.7184 29.0457C41.6666 33.0804 37.94 35.3728 31.3664 35.3728V35.3728Z" fill="#539E43"/>
</svg>
