<svg width="50" height="50" viewBox="0 0 50 50" fill="none" xmlns="http://www.w3.org/2000/svg">
<path d="M16.6328 34.1609C16.3984 32.6316 15.7539 31.3895 14.1894 30.7888C13.5771 30.5544 13.0469 30.1267 12.4433 29.8571C11.7578 29.5495 11.0605 29.2565 10.3369 29.0661C9.78904 28.9196 9.27927 29.1657 8.95408 29.6462C8.64646 30.0974 8.86912 30.5222 9.12693 30.9001C9.41697 31.3249 9.73923 31.7292 10.0644 32.1276C10.6035 32.7897 11.1748 33.4255 11.6992 34.0965C12.2002 34.7381 12.6279 35.45 12.5547 36.2996C12.3935 38.1629 11.5498 39.7069 10.1904 40.9637C10.041 41.0984 9.77732 41.1951 9.58396 41.1775C8.71677 41.0838 7.92869 40.7557 7.29295 40.1492C6.56345 39.4549 6.67478 38.6375 7.54783 38.1307C7.75584 38.0105 7.97263 37.8992 8.16306 37.7527C8.69627 37.3514 8.87498 36.6658 8.58494 36.0711C8.44724 35.784 8.29197 35.4734 8.06345 35.2654C6.94724 34.2488 5.85144 33.1999 4.65613 32.2742C1.75857 30.0241 0.270387 27.0477 0.0417735 23.444C-0.216039 19.442 0.712672 15.7066 2.82498 12.2876C3.62478 10.9897 4.55642 9.75332 5.98611 9.11182C6.95877 8.67529 8.02517 8.4292 9.06531 8.15674C11.9277 7.40381 14.8163 6.83838 17.7959 7.34229C20.3623 7.77295 22.2403 9.09424 23.1016 11.6167C23.6671 13.2661 23.8018 14.9712 23.6261 16.7174C23.2803 20.1481 20.7462 23.2155 17.4414 24.1237C16.0088 24.5163 15.2265 24.2966 14.3652 23.1042C13.747 22.2458 13.2344 21.3112 12.6806 20.4059C12.5986 20.2711 12.54 20.1158 12.4697 19.9723C12.4023 19.8287 12.3291 19.691 12.2588 19.5475C12.4668 21.0357 12.8125 22.4685 13.624 23.7457C14.0635 24.44 14.6494 24.9527 15.5078 25.0289C18.666 25.3131 21.3321 24.276 23.2247 21.7358C25.3428 18.8939 25.8088 15.6244 25.1964 12.182C25.0762 11.5023 24.8741 10.8373 24.7305 10.1605C24.6339 9.72402 24.8067 9.40176 25.2374 9.24941C25.4366 9.18203 25.6417 9.12637 25.8409 9.08535C28.425 8.52871 31.0383 8.34414 33.672 8.61074C36.6604 8.90957 39.4876 9.72988 42.0159 11.3911C45.974 13.9956 48.4262 17.7018 49.7592 22.1843C49.9525 22.8347 49.9818 23.5466 49.9994 24.2322C50.0111 24.6893 49.7181 24.8094 49.3695 24.5223C48.9857 24.2088 48.6342 23.8514 48.3031 23.4822C47.9955 23.1336 47.7494 22.7352 47.4506 22.3689C47.2191 22.0818 47.017 22.1258 46.9056 22.4832C46.8353 22.7 46.7738 22.9139 46.7123 23.1307C46.0209 25.5975 44.931 27.8475 43.1644 29.7431C42.9183 30.0097 42.6986 30.4052 42.6693 30.7567C42.5931 31.7294 42.5375 32.7226 42.6312 33.6923C42.8246 35.7754 43.1263 37.8495 43.3607 39.9297C43.4926 41.1045 43.1146 41.7959 42.0101 42.2032C41.2338 42.4874 40.4017 42.6954 39.5814 42.754C38.2748 42.8448 36.9564 42.7804 35.6439 42.7804C35.6088 41.3155 35.7347 39.8769 34.3578 39.0918C34.6244 38.0049 34.932 36.9736 35.1166 35.9189C35.2689 35.043 35.14 34.1816 34.5248 33.4639C33.9476 32.7871 33.224 32.6025 32.5618 32.9893C30.5667 34.1523 28.4924 34.1582 26.3801 33.3965C25.4103 33.0449 24.7336 33.2441 24.1973 34.1289C23.6202 35.0811 23.377 36.1504 23.4415 37.2315C23.5235 38.5938 23.7608 39.9415 23.9425 41.2979C24.0421 42.0567 23.9571 42.253 23.2042 42.4464C21.5313 42.8712 19.8292 42.9181 18.1181 42.7804C18.0273 42.7716 17.9365 42.7335 17.8779 42.7188C17.7929 41.298 17.9424 39.8213 16.249 39.0654C16.999 37.4746 16.8965 35.8252 16.6386 34.1758L16.6328 34.1611V34.1609ZM6.51941 28.5857C6.76843 28.3514 6.96765 27.9852 7.03796 27.6482C7.21375 26.8045 6.58093 25.6736 5.84851 25.3602C5.45886 25.1902 5.11902 25.2518 4.84363 25.5623C4.17273 26.3211 3.51062 27.0887 2.85134 27.8593C2.74002 27.9911 2.64041 28.1464 2.5613 28.3017C2.29763 28.8085 2.45291 29.1776 3.01541 29.3153C3.35525 29.4003 3.70681 29.4179 4.05545 29.4677C4.96365 29.3798 5.84256 29.2274 6.51931 28.5888V28.5858L6.51941 28.5857ZM6.59558 20.1511C6.59265 19.5476 6.08875 19.0437 5.49402 19.0407C4.88171 19.0378 4.35437 19.5856 4.37488 20.1892C4.40125 20.7956 4.90515 21.2819 5.50867 21.2702C6.11804 21.2614 6.60437 20.7634 6.59851 20.154L6.59558 20.1511Z" fill="#537BC1"/>
</svg>
