<svg width="13" height="13" viewBox="0 0 13 13" fill="none" xmlns="http://www.w3.org/2000/svg">
<path d="M6.5 0.25C6.7072 0.25 6.90591 0.33231 7.05243 0.478823C7.19894 0.625336 7.28125 0.82405 7.28125 1.03125V5.71875H11.9688C12.176 5.71875 12.3747 5.80106 12.5212 5.94757C12.6677 6.09409 12.75 6.2928 12.75 6.5C12.75 6.7072 12.6677 6.90591 12.5212 7.05243C12.3747 7.19894 12.176 7.28125 11.9688 7.28125H7.28125V11.9688C7.28125 12.176 7.19894 12.3747 7.05243 12.5212C6.90591 12.6677 6.7072 12.75 6.5 12.75C6.2928 12.75 6.09409 12.6677 5.94757 12.5212C5.80106 12.3747 5.71875 12.176 5.71875 11.9688V7.28125H1.03125C0.82405 7.28125 0.625336 7.19894 0.478823 7.05243C0.33231 6.90591 0.25 6.7072 0.25 6.5C0.25 6.2928 0.33231 6.09409 0.478823 5.94757C0.625336 5.80106 0.82405 5.71875 1.03125 5.71875H5.71875V1.03125C5.71875 0.82405 5.80106 0.625336 5.94757 0.478823C6.09409 0.33231 6.2928 0.25 6.5 0.25Z" fill="#FF4B33"/>
</svg>
