<svg width="50" height="50" viewBox="0 0 50 50" fill="none" xmlns="http://www.w3.org/2000/svg">
<path d="M16 15C16.5523 15 17 14.5523 17 14C17 13.4477 16.5523 13 16 13C15.4477 13 15 13.4477 15 14C15 14.5523 15.4477 15 16 15Z" fill="#FF4B33"/>
<path d="M16 19.4688V35.0729M34.1979 35.0729V25.0625C34.1952 23.4555 33.5556 21.915 32.4192 20.7787C31.2829 19.6424 29.7424 19.0028 28.1354 19C26.5266 19 24.9835 19.6384 23.8449 20.775C22.7063 21.9117 22.0653 23.4537 22.0625 25.0625M22.0625 25.0625V35.0729M22.0625 25.0625V19.4688" stroke="#FF4B33" stroke-linecap="round" stroke-linejoin="round"/>
</svg>
