<svg width="50" height="50" viewBox="0 0 50 50" fill="none" xmlns="http://www.w3.org/2000/svg">
<path d="M1.87358 32.6437L8.61364 0.969628C8.84659 -0.110585 10.8224 -0.365794 11.5199 0.599835L18.7642 10.5426L1.87358 32.6437ZM50 40L43.3608 11.1676C43.3126 10.9615 43.1885 10.769 43.0019 10.6109C42.8152 10.4529 42.5731 10.3353 42.3018 10.2709C42.0306 10.2065 41.7404 10.1978 41.4629 10.2457C41.1853 10.2936 40.9309 10.3963 40.7273 10.5426L0 40L22.6364 49.574C23.331 49.8534 24.1105 49.9998 24.9027 49.9998C25.6949 49.9998 26.4744 49.8534 27.169 49.574L50 40ZM31.5852 14.8884L26.3949 7.64465C26.2658 7.45857 26.0691 7.3023 25.8264 7.19315C25.5837 7.084 25.3046 7.02623 25.0199 7.02623C24.7352 7.02623 24.4561 7.084 24.2134 7.19315C23.9707 7.3023 23.7739 7.45857 23.6449 7.64465L0.828125 37.4729L31.5852 14.8884Z" fill="#38C7C7"/>
</svg>
