<svg width="26" height="37" viewBox="0 0 26 37" fill="none" xmlns="http://www.w3.org/2000/svg">
  <path
    d="M24.7812 7.80002C25.2612 9.10669 25.4345 10.4 25.3012 11.68C25.1679 13.12 24.6879 14.64 23.8612 16.24C23.2212 17.4667 22.3412 18.64 21.2212 19.76C19.9412 21.04 18.6745 22 17.4212 22.64C16.2479 23.2533 14.7012 23.7867 12.7812 24.24C10.9945 24.6667 9.34114 24.8933 7.82114 24.92C7.52781 24.92 7.30114 24.9067 7.14114 24.88C6.87448 24.8 6.84781 24.72 7.06114 24.64C7.30114 24.5333 7.74114 24.4533 8.38114 24.4C11.1012 24.24 13.6612 23.6533 16.0612 22.64C18.4612 21.6267 20.4079 20.16 21.9012 18.24C22.6212 17.3333 23.2212 16.2667 23.7012 15.04C24.2079 13.7333 24.5012 12.52 24.5812 11.4C24.7145 9.45335 24.1812 7.73335 22.9812 6.24002C21.6212 4.56002 19.8612 3.34669 17.7012 2.60002C15.5679 1.82669 13.4079 1.62669 11.2212 2.00002C8.71448 2.42668 6.64781 3.52002 5.02114 5.28002C3.39448 7.04002 2.38114 9.10669 1.98114 11.48C1.79448 12.7067 1.80781 13.9867 2.02114 15.32C2.18114 16.2 2.52781 17.4267 3.06114 19C3.56781 20.4667 3.87448 21.3467 3.98114 21.64C3.98114 21.6133 3.98114 21.6 3.98114 21.6C3.98114 21.5733 3.99448 21.5467 4.02114 21.52C3.88781 21.1733 3.72781 20.72 3.54114 20.16C3.35448 19.6 3.19448 19.1333 3.06114 18.76C2.95448 18.3867 2.82114 17.9467 2.66114 17.44C2.52781 16.9333 2.40781 16.4533 2.30114 16C1.95448 14.2933 1.92781 12.7067 2.22114 11.24C2.48781 9.82669 3.04781 8.46669 3.90114 7.16002C4.70114 5.93335 5.70114 4.92002 6.90114 4.12002C8.12781 3.29335 9.44781 2.76002 10.8612 2.52002C14.0079 1.98669 17.0079 2.56002 19.8612 4.24002C21.2212 5.04002 22.2612 6.05335 22.9812 7.28002C23.5945 8.32002 23.9145 9.46669 23.9412 10.72C24.0212 12.16 23.5545 13.8667 22.5412 15.84C21.8479 17.2267 20.9545 18.4 19.8612 19.36C18.8479 20.2667 17.6212 21.0667 16.1812 21.76C15.5145 22.08 14.8079 22.3733 14.0612 22.64C13.0479 22.9867 12.3412 23.1733 11.9412 23.2C11.6745 23.2 11.5279 23.1733 11.5012 23.12C11.4745 23.04 11.5812 22.9467 11.8212 22.84C11.8479 22.84 12.2079 22.7333 12.9012 22.52C13.2745 22.4133 13.6345 22.2933 13.9812 22.16C17.1279 21.0667 19.5145 19.3867 21.1412 17.12C21.8612 16.1067 22.4345 14.9067 22.8612 13.52C23.1545 12.56 23.2879 11.6667 23.2612 10.84C23.2345 9.48002 22.7812 8.25335 21.9012 7.16002C21.0479 6.04002 19.9545 5.13335 18.6212 4.44002C17.2612 3.74668 15.7945 3.33335 14.2212 3.20002C12.6745 3.06668 11.1812 3.24002 9.74114 3.72002C8.35448 4.17335 7.12781 4.90669 6.06114 5.92002C4.99448 6.93335 4.18114 8.12002 3.62114 9.48002C3.16781 10.6 2.91448 11.6933 2.86114 12.76C2.80781 13.9867 3.10114 15.56 3.74114 17.48C3.82114 17.7467 3.94114 18.1467 4.10114 18.68C4.28781 19.1867 4.42114 19.56 4.50114 19.8C5.06114 17.9333 5.54114 16.4 5.94114 15.2C6.02114 14.9067 6.08781 14.6933 6.14114 14.56C6.24781 14.16 6.38114 13.7867 6.54114 13.44C6.88781 12.5867 7.20781 12.0533 7.50114 11.84C7.68781 11.7067 7.80781 11.72 7.86114 11.88C7.91448 12.04 7.94114 12.24 7.94114 12.48C7.91448 12.72 7.87448 13 7.82114 13.32C7.76781 13.6133 7.70114 13.88 7.62114 14.12C7.56781 14.3333 7.50114 14.6133 7.42114 14.96C7.34114 15.28 7.27448 15.5333 7.22114 15.72C6.66114 18.12 6.35448 19.4133 6.30114 19.6C5.74114 21.8133 5.46114 22.92 5.46114 22.92C5.80781 24.28 5.99448 25.5467 6.02114 26.72C6.02114 27.7867 5.90114 28.92 5.66114 30.12C5.50114 30.9733 5.14114 32.1067 4.58114 33.52C4.26114 34.4 3.94114 35.1067 3.62114 35.64C3.32781 36.1733 3.04781 36.52 2.78114 36.68C2.54114 36.7867 2.28781 36.8 2.02114 36.72C1.75448 36.64 1.55448 36.48 1.42114 36.24C1.23448 35.92 1.19448 35.2533 1.30114 34.24C1.43448 32.96 1.70114 31.36 2.10114 29.44C2.60781 26.8533 2.95448 25.24 3.14114 24.6C3.19448 24.36 3.26114 24.1067 3.34114 23.84C3.20781 23.2533 3.02114 22.6 2.78114 21.88C2.54114 21.16 2.31448 20.52 2.10114 19.96C1.88781 19.4 1.67448 18.7733 1.46114 18.08C1.24781 17.36 1.07448 16.6933 0.941145 16.08C0.434478 13.6 0.621145 11.2133 1.50114 8.92002C2.56781 6.09335 4.31448 3.98668 6.74114 2.60002C9.40781 1.05335 12.2612 0.56002 15.3012 1.12002C16.7945 1.41335 18.1945 1.85335 19.5012 2.44002C22.1679 3.72002 23.9279 5.50669 24.7812 7.80002Z"
    stroke="white" stroke-dasharray="1000" stroke-width="0.5" stroke-dashoffset="1000">
    <animate attributeName="stroke-dashoffset" from="1000" to="0" dur="5s" fill="freeze" id="projects" begin="none" />
  </path>
</svg>